<svg width="1200" height="630" viewBox="0 0 1200 630" xmlns="http://www.w3.org/2000/svg" role="img" aria-label="Carlos Council — five strategists, one orchestrator">
  <title>Carlos Council</title>
  <!-- Warm cream backdrop with a thin amber frame -->
  <rect width="1200" height="630" fill="#FFFBEB"/>
  <rect x="10" y="10" width="1180" height="610" fill="none" stroke="#B45309" stroke-width="3" opacity="0.45" rx="18"/>

  <!-- Carlos mark (compass ring + paw), scaled from public/carlos-mark.svg -->
  <g transform="translate(150 183) scale(2.1)">
    <circle cx="64" cy="64" r="60" fill="#FFFFFF"/>
    <circle cx="64" cy="64" r="60" fill="none" stroke="#B45309" stroke-width="3"/>
    <g stroke="#B45309" stroke-width="3" stroke-linecap="round" opacity="0.55">
      <line x1="64" y1="10" x2="64" y2="20"/>
      <line x1="64" y1="108" x2="64" y2="118"/>
      <line x1="10" y1="64" x2="20" y2="64"/>
      <line x1="108" y1="64" x2="118" y2="64"/>
    </g>
    <g fill="#B45309">
      <path d="M64 96c-9 0-16-6-16-14 0-7 7-11 16-11s16 4 16 11c0 8-7 14-16 14z"/>
      <ellipse cx="45" cy="60" rx="7" ry="9" transform="rotate(-18 45 60)"/>
      <ellipse cx="57" cy="50" rx="7" ry="10"/>
      <ellipse cx="71" cy="50" rx="7" ry="10"/>
      <ellipse cx="83" cy="60" rx="7" ry="9" transform="rotate(18 83 60)"/>
    </g>
  </g>

  <!-- Wordmark + tagline -->
  <text x="470" y="270" font-family="Georgia, 'Times New Roman', serif" font-size="92" font-weight="700" fill="#1C1917">Carlos Council</text>
  <text x="472" y="338" font-family="Helvetica, Arial, sans-serif" font-size="36" font-weight="400" fill="#57534E">Five strategists. One orchestrator.</text>
  <line x1="472" y1="372" x2="640" y2="372" stroke="#B45309" stroke-width="4" stroke-linecap="round"/>
  <text x="472" y="424" font-family="Helvetica, Arial, sans-serif" font-size="26" font-weight="400" fill="#78716C">A five-agent, four-phase strategy council you can self-host.</text>
</svg>
